<svg width="40" height="40" viewBox="0 0 40 40" fill="none" xmlns="http://www.w3.org/2000/svg">
    <circle cx="20" cy="20" r="20" fill="#F50"/>
    <path d="M31.918 12.19a.447.447 0 0 0-.462-.18L8.353 17.266a.456.456 0 0 0-.351.408.453.453 0 0 0 .276.461l5.304 2.219L15.067 26l2.385-2.416 4.839 4.303a.455.455 0 0 0 .296.113c.024 0 .045 0 .07-.006a.448.448 0 0 0 .315-.217l8.964-15.08a.462.462 0 0 0-.021-.503l.003-.004zm-9.437 14.647-6.154-5.473 10.27-6.351-12.532 4.555s-.021-.015-.033-.018l-4.086-1.709 20.68-4.702-8.143 13.698h-.002z" fill="#fff"/>
</svg>
